<svg width="27" height="26" viewBox="0 0 27 26" fill="none" xmlns="http://www.w3.org/2000/svg">
<path d="M1.74196 13.02C1.77883 12.5606 1.9874 12.1319 2.32613 11.8194C2.66486 11.5068 3.10889 11.3333 3.56979 11.3334H14.623C15.0839 11.3333 15.5279 11.5068 15.8666 11.8194C16.2054 12.1319 16.4139 12.5606 16.4508 13.02L17.1869 22.1867C17.2071 22.439 17.1749 22.6927 17.0923 22.9319C17.0097 23.1711 16.8784 23.3906 16.7068 23.5766C16.5352 23.7626 16.3269 23.911 16.0951 24.0126C15.8633 24.1142 15.613 24.1666 15.36 24.1667H2.83279C2.57972 24.1666 2.32941 24.1142 2.09761 24.0126C1.86581 23.911 1.65754 23.7626 1.48593 23.5766C1.31432 23.3906 1.18307 23.1711 1.10045 22.9319C1.01783 22.6927 0.985631 22.439 1.00588 22.1867L1.74196 13.02V13.02Z" stroke="black" stroke-width="2" stroke-linecap="round" stroke-linejoin="round"/>
<path d="M12.763 14.0834V9.50004C12.763 8.52758 12.3767 7.59495 11.6891 6.90732C11.0014 6.21968 10.0688 5.83337 9.09635 5.83337C8.12389 5.83337 7.19126 6.21968 6.50363 6.90732C5.816 7.59495 5.42969 8.52758 5.42969 9.50004V14.0834" stroke="black" stroke-width="2" stroke-linecap="round" stroke-linejoin="round"/>
<path d="M17.0967 1.6875C15.6504 1.6875 14.2366 2.11637 13.0341 2.91988C11.8315 3.72339 10.8943 4.86544 10.3408 6.20163C9.78735 7.53781 9.64254 9.00811 9.92469 10.4266C10.2068 11.8451 10.9033 13.148 11.926 14.1707C12.9486 15.1934 14.2516 15.8898 15.6701 16.172C17.0886 16.4541 18.5589 16.3093 19.8951 15.7559C21.2312 15.2024 22.3733 14.2651 23.1768 13.0626C23.9803 11.8601 24.4092 10.4463 24.4092 9C24.407 7.06128 23.6359 5.20259 22.265 3.83171C20.8941 2.46082 19.0354 1.6897 17.0967 1.6875ZM19.0654 12.375C19.0654 12.5242 19.0062 12.6673 18.9007 12.7727C18.7952 12.8782 18.6521 12.9375 18.5029 12.9375C18.3537 12.9375 18.2107 12.8782 18.1052 12.7727C17.9997 12.6673 17.9404 12.5242 17.9404 12.375V10.6875H15.1279C15.038 10.6875 14.9493 10.6659 14.8694 10.6246C14.7895 10.5832 14.7207 10.5233 14.6688 10.4499C14.6168 10.3765 14.5832 10.2916 14.5708 10.2025C14.5584 10.1134 14.5676 10.0227 14.5975 9.93783L16.2849 5.15658C16.3091 5.08655 16.347 5.02201 16.3963 4.96668C16.4457 4.91134 16.5054 4.8663 16.5722 4.83414C16.639 4.80197 16.7115 4.78333 16.7855 4.77927C16.8595 4.77521 16.9336 4.78581 17.0035 4.81048C17.0734 4.83514 17.1377 4.87338 17.1928 4.92298C17.2478 4.97259 17.2926 5.0326 17.3244 5.09955C17.3562 5.1665 17.3744 5.23907 17.3781 5.3131C17.3818 5.38713 17.3708 5.46116 17.3457 5.53092L15.923 9.5625H17.9404V7.875C17.9404 7.72582 17.9997 7.58274 18.1052 7.47725C18.2107 7.37176 18.3537 7.3125 18.5029 7.3125C18.6521 7.3125 18.7952 7.37176 18.9007 7.47725C19.0062 7.58274 19.0654 7.72582 19.0654 7.875V12.375Z" fill="#EB0029"/>
</svg>
