<svg width="16" height="16" viewBox="0 0 16 16" fill="none" xmlns="http://www.w3.org/2000/svg">
<path d="M6.235 2.19199C6.00672 2.06367 5.74882 1.99735 5.48695 1.99963C5.22508 2.00191 4.96837 2.0727 4.74236 2.20498C4.51634 2.33725 4.32889 2.52639 4.19865 2.75358C4.06842 2.98078 3.99993 3.23811 4 3.49999V12.5C4.0001 12.7618 4.06872 13.019 4.19903 13.246C4.32934 13.4731 4.5168 13.6621 4.74279 13.7943C4.96878 13.9264 5.22542 13.9971 5.4872 13.9994C5.74898 14.0016 6.00679 13.9353 6.235 13.807L14.235 9.30699C14.4668 9.17645 14.6597 8.98661 14.794 8.75694C14.9282 8.52727 14.999 8.26602 14.999 7.99999C14.999 7.73396 14.9282 7.47271 14.794 7.24304C14.6597 7.01337 14.4668 6.82353 14.235 6.69299L6.235 2.19299V2.19199Z" fill="#010F1C"/>
</svg>
